<svg viewBox="0 0 1400 346" xmlns="http://www.w3.org/2000/svg" class="SVG-nuxt">
  <g fill="none" fill-rule="evenodd">
    <path fill="#42b883" d="M200 0l200 346H0z"/>
    <path fill="#3C8171" d="M311 43l175 303H136z"/>
    <path fill="#35495E" d="M267.946 117L400 345.454H136L267.946 117zm490.183 12.288c0-8.192-5.851-12.288-12.288-12.288-6.436 0-11.703 4.096-11.703 12.288l.585 127.562c0 19.017.878 38.62 2.048 55.882-6.729-13.751-15.213-30.428-24.576-43.886l-93.038-134.877C610.965 122.56 607.16 117 596.337 117c-9.948 0-14.337 5.559-14.337 16.97v197.779c0 8.485 5.266 11.996 11.703 11.996 6.73 0 12.288-3.511 12.288-11.996l-.878-129.025c0-19.017-.292-38.912-1.463-57.344 10.533 17.261 19.31 33.646 30.136 49.152l90.99 131.95c8.777 12.874 12.288 17.263 21.65 17.263 8.778 0 11.703-4.974 11.703-17.262V129.288zm229.378 0c0-8.192-6.144-12.288-12.58-12.288-6.437 0-11.996 4.096-11.996 12.288v129.318c0 49.445-28.672 65.829-63.489 65.829-34.523 0-62.903-16.384-62.903-65.83V129.289c0-8.192-6.144-12.288-12.58-12.288-6.437 0-11.996 4.096-11.996 12.288v130.78c0 59.393 33.353 85.432 87.48 85.432 54.71 0 88.064-26.04 88.064-85.431v-130.78zm141.898 97.72l67.585-90.406c1.755-2.34 2.633-4.68 2.633-7.021 0-6.73-6.437-12.288-12.873-12.288-3.219 0-6.73 1.462-9.07 4.68l-62.903 86.895-62.904-86.602c-2.633-3.51-5.851-4.973-9.362-4.973-6.437 0-12.58 5.851-12.58 12.58 0 2.048.584 4.389 2.34 6.73l67.292 90.405-74.021 97.427c-2.048 2.633-2.634 5.266-2.634 7.607 0 6.729 5.852 11.41 12.581 11.41 3.511 0 6.73-1.463 9.362-4.681l69.048-93.331 69.047 93.33c2.34 3.22 5.852 4.682 9.363 4.682 6.436 0 12.58-5.559 12.58-11.996 0-2.34-.877-4.68-2.633-7.314l-72.85-97.134zm192.514-89.187h66.706c7.9 0 10.826-4.389 10.826-10.825 0-6.437-2.926-10.24-10.826-10.24h-157.404c-7.9 0-10.825 3.803-10.825 10.24 0 6.436 2.925 10.825 10.825 10.825h65.829v191.928c0 8.485 5.559 11.996 11.995 11.996 6.437 0 12.874-3.511 12.874-11.996V137.821z"/>
  </g>
</svg>
